<?xml version="1.0" standalone="no"?><!DOCTYPE svg PUBLIC "-//W3C//DTD SVG 1.1//EN" "http://www.w3.org/Graphics/SVG/1.1/DTD/svg11.dtd"><svg t="1492428646766" class="icon" style="" viewBox="0 0 1024 1024" version="1.1" xmlns="http://www.w3.org/2000/svg" p-id="3098" xmlns:xlink="http://www.w3.org/1999/xlink" width="128" height="128"><defs><style type="text/css"></style></defs><path d="M76.8 716.8c42.4192 0 76.8 34.3808 76.8 76.8s-34.3808 76.8-76.8 76.8-76.8-34.3808-76.8-76.8S34.3808 716.8 76.8 716.8z" p-id="3099" fill="#ff819f"></path><path d="M76.8 435.2c42.4192 0 76.8 34.3808 76.8 76.8s-34.3808 76.8-76.8 76.8-76.8-34.3808-76.8-76.8S34.3808 435.2 76.8 435.2z" p-id="3100" fill="#ff819f"></path><path d="M76.8 153.6c42.4192 0 76.8 34.3808 76.8 76.8s-34.3808 76.8-76.8 76.8-76.8-34.3808-76.8-76.8S34.3808 153.6 76.8 153.6z" p-id="3101" fill="#ff819f"></path><path d="M307.2 179.2l665.6 0c28.2624 0 51.2 22.9376 51.2 51.2l0 0c0 28.2624-22.9376 51.2-51.2 51.2L307.2 281.6c-28.288 0-51.2-22.9376-51.2-51.2l0 0C256 202.1376 278.912 179.2 307.2 179.2z" p-id="3102" fill="#ff819f"></path><path d="M307.2 460.8l665.6 0c28.2624 0 51.2 22.9376 51.2 51.2l0 0c0 28.2624-22.9376 51.2-51.2 51.2L307.2 563.2c-28.288 0-51.2-22.9376-51.2-51.2l0 0C256 483.7376 278.912 460.8 307.2 460.8z" p-id="3103" fill="#ff819f"></path><path d="M307.2 460.8l665.6 0c28.2624 0 51.2 22.9376 51.2 51.2l0 0c0 28.2624-22.9376 51.2-51.2 51.2L307.2 563.2c-28.288 0-51.2-22.9376-51.2-51.2l0 0C256 483.7376 278.912 460.8 307.2 460.8z" p-id="3104" fill="#ff819f"></path><path d="M307.2 742.4l665.6 0c28.2624 0 51.2 22.9376 51.2 51.2l0 0c0 28.2624-22.9376 51.2-51.2 51.2L307.2 844.8c-28.288 0-51.2-22.9376-51.2-51.2l0 0C256 765.3376 278.912 742.4 307.2 742.4z" p-id="3105" fill="#ff819f"></path></svg>